<?xml version="1.0" standalone="no"?>
<!DOCTYPE svg PUBLIC "-//W3C//DTD SVG 20010904//EN"
 "http://www.w3.org/TR/2001/REC-SVG-20010904/DTD/svg10.dtd">
<svg version="1.0" xmlns="http://www.w3.org/2000/svg"
 width="50.000000pt" height="50.000000pt" viewBox="0 0 50.000000 50.000000"
 preserveAspectRatio="xMidYMid meet">

<g transform="translate(0.000000,50.000000) scale(0.100000,-0.100000)"
fill="#000000" stroke="none">
<path d="M52 447 l-52 -53 0 -197 0 -197 198 0 198 0 52 53 52 53 0 197 0 197
-198 0 -198 0 -52 -53z m428 -152 l0 -185 -139 0 c-76 0 -159 3 -185 6 l-46 7
0 178 0 179 185 0 185 0 0 -185z m-380 -8 l0 -173 -40 -39 -40 -39 0 179 0
179 32 33 c18 18 36 33 40 33 4 0 8 -78 8 -173z m360 -194 c0 -4 -14 -22 -32
-40 l-32 -33 -180 0 -180 0 39 40 39 40 173 0 c95 0 173 -3 173 -7z"/>
<path d="M197 403 c-4 -3 -7 -55 -7 -115 l0 -108 76 0 c73 0 77 1 110 34 28
28 34 41 34 78 0 52 -21 85 -66 104 -34 14 -135 19 -147 7z m168 -43 c25 -24
34 -76 19 -115 -10 -26 -59 -45 -119 -45 l-55 0 0 96 0 96 65 -4 c50 -3 70 -9
90 -28z"/>
<path d="M257 353 c-4 -3 -7 -33 -7 -65 l0 -58 33 0 c42 0 67 26 67 68 0 21
-7 36 -22 46 -23 16 -60 21 -71 9z m68 -38 c19 -29 2 -65 -30 -65 -23 0 -25 3
-25 46 0 41 2 45 21 42 12 -2 27 -12 34 -23z"/>
</g>
</svg>
