<svg id="svg" version="1.1" xmlns="http://www.w3.org/2000/svg" xmlns:xlink="http://www.w3.org/1999/xlink" width="400" height="344.82758620689657" viewBox="0, 0, 400,344.82758620689657"><g id="svgg"><path id="path0" d="M101.379 0.345 C 101.379 0.534,100.511 0.690,99.450 0.690 C 97.812 0.690,97.495 0.793,97.341 1.379 C 97.241 1.761,96.871 2.069,96.512 2.069 C 96.092 2.069,95.862 2.313,95.862 2.759 C 95.862 3.333,95.632 3.448,94.483 3.448 C 93.333 3.448,93.103 3.563,93.103 4.138 C 93.103 4.713,92.874 4.828,91.724 4.828 C 90.575 4.828,90.345 4.943,90.345 5.517 C 90.345 6.079,90.115 6.207,89.106 6.207 C 88.156 6.207,87.824 6.368,87.686 6.897 C 87.549 7.419,87.216 7.586,86.307 7.586 C 85.398 7.586,85.064 7.753,84.927 8.276 C 84.828 8.658,84.457 8.966,84.098 8.966 C 83.678 8.966,83.448 9.210,83.448 9.655 C 83.448 10.230,83.218 10.345,82.069 10.345 C 80.920 10.345,80.690 10.460,80.690 11.034 C 80.690 11.596,80.460 11.724,79.450 11.724 C 78.501 11.724,78.169 11.886,78.031 12.414 C 77.894 12.937,77.561 13.103,76.652 13.103 C 75.743 13.103,75.409 13.270,75.272 13.793 C 75.173 14.175,74.802 14.483,74.443 14.483 C 74.023 14.483,73.793 14.727,73.793 15.172 C 73.793 15.747,73.563 15.862,72.414 15.862 C 71.264 15.862,71.034 15.977,71.034 16.552 C 71.034 17.126,70.805 17.241,69.655 17.241 C 68.506 17.241,68.276 17.356,68.276 17.931 C 68.276 18.493,68.046 18.621,67.037 18.621 C 66.088 18.621,65.755 18.782,65.617 19.310 C 65.517 19.692,65.147 20.000,64.787 20.000 C 64.368 20.000,64.138 20.244,64.138 20.690 C 64.138 21.264,63.908 21.379,62.759 21.379 C 61.609 21.379,61.379 21.494,61.379 22.069 C 61.379 22.644,61.149 22.759,60.000 22.759 C 58.851 22.759,58.621 22.874,58.621 23.448 C 58.621 24.010,58.391 24.138,57.382 24.138 C 56.432 24.138,56.100 24.299,55.962 24.828 C 55.825 25.350,55.492 25.517,54.583 25.517 C 53.674 25.517,53.340 25.684,53.203 26.207 C 53.104 26.589,52.733 26.897,52.374 26.897 C 51.954 26.897,51.724 27.141,51.724 27.586 C 51.724 28.161,51.494 28.276,50.345 28.276 C 49.195 28.276,48.966 28.391,48.966 28.966 C 48.966 29.527,48.736 29.655,47.726 29.655 C 46.777 29.655,46.445 29.817,46.307 30.345 C 46.170 30.868,45.836 31.034,44.927 31.034 C 44.019 31.034,43.685 31.201,43.548 31.724 C 43.448 32.106,43.078 32.414,42.718 32.414 C 42.299 32.414,42.069 32.658,42.069 33.103 C 42.069 33.678,41.839 33.793,40.690 33.793 C 39.540 33.793,39.310 33.908,39.310 34.483 C 39.310 35.057,39.080 35.172,37.931 35.172 C 36.782 35.172,36.552 35.287,36.552 35.862 C 36.552 36.424,36.322 36.552,35.313 36.552 C 34.363 36.552,34.031 36.713,33.893 37.241 C 33.756 37.764,33.423 37.931,32.514 37.931 C 31.605 37.931,31.271 38.098,31.134 38.621 C 31.035 39.002,30.664 39.310,30.305 39.310 C 29.885 39.310,29.655 39.554,29.655 40.000 C 29.655 40.575,29.425 40.690,28.276 40.690 C 27.126 40.690,26.897 40.805,26.897 41.379 C 26.897 41.941,26.667 42.069,25.657 42.069 C 24.708 42.069,24.376 42.230,24.238 42.759 C 24.101 43.281,23.767 43.448,22.859 43.448 C 21.950 43.448,21.616 43.615,21.479 44.138 C 21.379 44.520,21.009 44.828,20.649 44.828 C 20.230 44.828,20.000 45.072,20.000 45.517 C 20.000 46.092,19.770 46.207,18.621 46.207 C 17.471 46.207,17.241 46.322,17.241 46.897 C 17.241 47.471,17.011 47.586,15.862 47.586 C 14.713 47.586,14.483 47.701,14.483 48.276 C 14.483 48.838,14.253 48.966,13.244 48.966 C 12.294 48.966,11.962 49.127,11.824 49.655 C 11.724 50.037,11.354 50.345,10.994 50.345 C 10.575 50.345,10.345 50.589,10.345 51.034 C 10.345 51.609,10.115 51.724,8.966 51.724 C 7.816 51.724,7.586 51.839,7.586 52.414 C 7.586 52.874,7.356 53.103,6.897 53.103 C 6.437 53.103,6.207 53.333,6.207 53.793 C 6.207 54.253,5.977 54.483,5.517 54.483 C 5.057 54.483,4.828 54.713,4.828 55.172 C 4.828 55.632,4.598 55.862,4.138 55.862 C 3.692 55.862,3.448 56.092,3.448 56.512 C 3.448 56.871,3.140 57.241,2.759 57.341 C 2.230 57.479,2.069 57.812,2.069 58.761 C 2.069 59.770,1.941 60.000,1.379 60.000 C 0.805 60.000,0.690 60.230,0.690 61.379 C 0.690 62.138,0.534 62.759,0.345 62.759 C 0.116 62.759,0.000 82.299,0.000 120.690 C 0.000 159.080,0.116 178.621,0.345 178.621 C 0.534 178.621,0.690 179.241,0.690 180.000 C 0.690 181.149,0.805 181.379,1.379 181.379 C 1.954 181.379,2.069 181.609,2.069 182.759 C 2.069 183.908,2.184 184.138,2.759 184.138 C 3.218 184.138,3.448 184.368,3.448 184.828 C 3.448 185.287,3.678 185.517,4.138 185.517 C 4.598 185.517,4.828 185.747,4.828 186.207 C 4.828 186.667,5.057 186.897,5.517 186.897 C 5.977 186.897,6.207 187.126,6.207 187.586 C 6.207 188.046,6.437 188.276,6.897 188.276 C 7.356 188.276,7.586 188.506,7.586 188.966 C 7.586 189.425,7.816 189.655,8.276 189.655 C 8.736 189.655,8.966 189.885,8.966 190.345 C 8.966 190.920,9.195 191.034,10.345 191.034 C 11.494 191.034,11.724 191.149,11.724 191.724 C 11.724 192.170,11.954 192.414,12.374 192.414 C 12.733 192.414,13.104 192.722,13.203 193.103 C 13.340 193.626,13.674 193.793,14.583 193.793 C 15.492 193.793,15.825 193.960,15.962 194.483 C 16.100 195.011,16.432 195.172,17.382 195.172 C 18.391 195.172,18.621 195.300,18.621 195.862 C 18.621 196.437,18.851 196.552,20.000 196.552 C 21.149 196.552,21.379 196.667,21.379 197.241 C 21.379 197.816,21.609 197.931,22.759 197.931 C 23.908 197.931,24.138 198.046,24.138 198.621 C 24.138 199.066,24.368 199.310,24.787 199.310 C 25.147 199.310,25.517 199.618,25.617 200.000 C 25.754 200.523,26.088 200.690,26.996 200.690 C 27.905 200.690,28.239 200.856,28.376 201.379 C 28.514 201.908,28.846 202.069,29.795 202.069 C 30.805 202.069,31.034 202.197,31.034 202.759 C 31.034 203.333,31.264 203.448,32.414 203.448 C 33.563 203.448,33.793 203.563,33.793 204.138 C 33.793 204.583,34.023 204.828,34.443 204.828 C 34.802 204.828,35.173 205.136,35.272 205.517 C 35.409 206.040,35.743 206.207,36.652 206.207 C 37.561 206.207,37.894 206.374,38.031 206.897 C 38.169 207.425,38.501 207.586,39.450 207.586 C 40.460 207.586,40.690 207.714,40.690 208.276 C 40.690 208.851,40.920 208.966,42.069 208.966 C 43.218 208.966,43.448 209.080,43.448 209.655 C 43.448 210.101,43.678 210.345,44.098 210.345 C 44.457 210.345,44.828 210.653,44.927 211.034 C 45.064 211.557,45.398 211.724,46.307 211.724 C 47.216 211.724,47.549 211.891,47.686 212.414 C 47.824 212.942,48.156 213.103,49.106 213.103 C 50.115 213.103,50.345 213.231,50.345 213.793 C 50.345 214.368,50.575 214.483,51.724 214.483 C 52.874 214.483,53.103 214.598,53.103 215.172 C 53.103 215.747,53.333 215.862,54.483 215.862 C 55.632 215.862,55.862 215.977,55.862 216.552 C 55.862 216.997,56.092 217.241,56.512 217.241 C 56.871 217.241,57.241 217.549,57.341 217.931 C 57.478 218.454,57.812 218.621,58.721 218.621 C 59.630 218.621,59.963 218.788,60.100 219.310 C 60.238 219.839,60.570 220.000,61.519 220.000 C 62.529 220.000,62.759 220.128,62.759 220.690 C 62.759 221.264,62.989 221.379,64.138 221.379 C 65.287 221.379,65.517 221.494,65.517 222.069 C 65.517 222.514,65.747 222.759,66.167 222.759 C 66.526 222.759,66.897 223.067,66.996 223.448 C 67.133 223.971,67.467 224.138,68.376 224.138 C 69.285 224.138,69.618 224.305,69.755 224.828 C 69.893 225.356,70.225 225.517,71.175 225.517 C 72.184 225.517,72.414 225.645,72.414 226.207 C 72.414 226.782,72.644 226.897,73.793 226.897 C 74.943 226.897,75.172 227.011,75.172 227.586 C 75.172 228.161,75.402 228.276,76.552 228.276 C 77.701 228.276,77.931 228.391,77.931 228.966 C 77.931 229.411,78.161 229.655,78.580 229.655 C 78.940 229.655,79.310 229.963,79.410 230.345 C 79.547 230.868,79.881 231.034,80.790 231.034 C 81.699 231.034,82.032 231.201,82.169 231.724 C 82.307 232.252,82.639 232.414,83.588 232.414 C 84.598 232.414,84.828 232.542,84.828 233.103 C 84.828 233.678,85.057 233.793,86.207 233.793 C 87.356 233.793,87.586 233.908,87.586 234.483 C 87.586 234.928,87.816 235.172,88.236 235.172 C 88.595 235.172,88.966 235.480,89.065 235.862 C 89.202 236.385,89.536 236.552,90.445 236.552 C 91.354 236.552,91.687 236.719,91.824 237.241 C 91.962 237.770,92.294 237.931,93.244 237.931 C 94.253 237.931,94.483 238.059,94.483 238.621 C 94.483 239.195,94.713 239.310,95.862 239.310 C 97.011 239.310,97.241 239.425,97.241 240.000 C 97.241 240.575,97.471 240.690,98.621 240.690 C 99.770 240.690,100.000 240.805,100.000 241.379 C 100.000 242.011,100.230 242.069,102.718 242.069 C 105.147 242.069,105.456 242.143,105.617 242.759 C 105.784 243.396,106.088 243.448,109.655 243.448 C 113.223 243.448,113.526 243.396,113.693 242.759 C 113.858 242.130,114.164 242.069,117.141 242.069 C 120.119 242.069,120.425 242.008,120.590 241.379 C 120.726 240.856,121.060 240.690,121.969 240.690 C 122.878 240.690,123.212 240.523,123.348 240.000 C 123.485 239.477,123.819 239.310,124.728 239.310 C 125.637 239.310,125.970 239.144,126.107 238.621 C 126.207 238.239,126.577 237.931,126.937 237.931 C 127.356 237.931,127.586 237.687,127.586 237.241 C 127.586 236.667,127.816 236.552,128.966 236.552 C 130.115 236.552,130.345 236.437,130.345 235.862 C 130.345 235.287,130.575 235.172,131.724 235.172 C 132.874 235.172,133.103 235.057,133.103 234.483 C 133.103 233.921,133.333 233.793,134.343 233.793 C 135.292 233.793,135.624 233.632,135.762 233.103 C 135.899 232.581,136.233 232.414,137.141 232.414 C 138.050 232.414,138.384 232.247,138.521 231.724 C 138.621 231.342,138.991 231.034,139.351 231.034 C 139.770 231.034,140.000 230.790,140.000 230.345 C 140.000 229.770,140.230 229.655,141.379 229.655 C 142.529 229.655,142.759 229.540,142.759 228.966 C 142.759 228.404,142.989 228.276,143.998 228.276 C 144.947 228.276,145.279 228.114,145.417 227.586 C 145.554 227.063,145.888 226.897,146.797 226.897 C 147.706 226.897,148.039 226.730,148.176 226.207 C 148.276 225.825,148.646 225.517,149.006 225.517 C 149.425 225.517,149.655 225.273,149.655 224.828 C 149.655 224.253,149.885 224.138,151.034 224.138 C 152.184 224.138,152.414 224.023,152.414 223.448 C 152.414 222.887,152.644 222.759,153.653 222.759 C 154.602 222.759,154.934 222.597,155.073 222.069 C 155.209 221.546,155.543 221.379,156.452 221.379 C 157.361 221.379,157.694 221.212,157.831 220.690 C 157.931 220.308,158.301 220.000,158.661 220.000 C 159.080 220.000,159.310 219.756,159.310 219.310 C 159.310 218.736,159.540 218.621,160.690 218.621 C 161.839 218.621,162.069 218.506,162.069 217.931 C 162.069 217.369,162.299 217.241,163.308 217.241 C 164.257 217.241,164.590 217.080,164.728 216.552 C 164.864 216.029,165.198 215.862,166.107 215.862 C 167.016 215.862,167.350 215.695,167.486 215.172 C 167.586 214.791,167.957 214.483,168.316 214.483 C 168.736 214.483,168.966 214.239,168.966 213.793 C 168.966 213.218,169.195 213.103,170.345 213.103 C 171.494 213.103,171.724 212.989,171.724 212.414 C 171.724 211.839,171.954 211.724,173.103 211.724 C 174.253 211.724,174.483 211.609,174.483 211.034 C 174.483 210.473,174.713 210.345,175.722 210.345 C 176.671 210.345,177.003 210.183,177.141 209.655 C 177.241 209.273,177.612 208.966,177.971 208.966 C 178.391 208.966,178.621 208.721,178.621 208.276 C 178.621 207.701,178.851 207.586,180.000 207.586 C 181.149 207.586,181.379 207.471,181.379 206.897 C 181.379 206.322,181.609 206.207,182.759 206.207 C 183.908 206.207,184.138 206.092,184.138 205.517 C 184.138 204.956,184.368 204.828,185.377 204.828 C 186.326 204.828,186.658 204.666,186.797 204.138 C 186.896 203.756,187.267 203.448,187.626 203.448 C 188.046 203.448,188.276 203.204,188.276 202.759 C 188.276 202.184,188.506 202.069,189.655 202.069 C 190.805 202.069,191.034 201.954,191.034 201.379 C 191.034 200.805,191.264 200.690,192.414 200.690 C 193.563 200.690,193.793 200.575,193.793 200.000 C 193.793 199.438,194.023 199.310,195.032 199.310 C 195.981 199.310,196.314 199.149,196.452 198.621 C 196.552 198.239,196.922 197.931,197.282 197.931 C 197.701 197.931,197.931 197.687,197.931 197.241 C 197.931 196.667,198.161 196.552,199.310 196.552 C 200.460 196.552,200.690 196.437,200.690 195.862 C 200.690 195.300,200.920 195.172,201.929 195.172 C 202.878 195.172,203.210 195.011,203.348 194.483 C 203.485 193.960,203.819 193.793,204.728 193.793 C 205.637 193.793,205.970 193.626,206.107 193.103 C 206.207 192.722,206.577 192.414,206.937 192.414 C 207.356 192.414,207.586 192.170,207.586 191.724 C 207.586 191.149,207.816 191.034,208.966 191.034 C 210.115 191.034,210.345 190.920,210.345 190.345 C 210.345 189.783,210.575 189.655,211.584 189.655 C 212.533 189.655,212.865 189.494,213.004 188.966 C 213.140 188.443,213.474 188.276,214.383 188.276 C 215.292 188.276,215.625 188.109,215.762 187.586 C 215.862 187.205,216.233 186.897,216.592 186.897 C 217.011 186.897,217.241 186.652,217.241 186.207 C 217.241 185.632,217.471 185.517,218.621 185.517 C 219.770 185.517,220.000 185.402,220.000 184.828 C 220.000 184.266,220.230 184.138,221.239 184.138 C 222.188 184.138,222.521 183.977,222.659 183.448 C 222.795 182.925,223.129 182.759,224.038 182.759 C 224.947 182.759,225.281 182.592,225.417 182.069 C 225.517 181.687,225.888 181.379,226.247 181.379 C 226.667 181.379,226.897 181.135,226.897 180.690 C 226.897 180.115,227.126 180.000,228.276 180.000 C 229.425 180.000,229.655 179.885,229.655 179.310 C 229.655 178.749,229.885 178.621,230.894 178.621 C 231.844 178.621,232.176 178.459,232.314 177.931 C 232.451 177.408,232.784 177.241,233.693 177.241 C 234.602 177.241,234.936 177.075,235.073 176.552 C 235.172 176.170,235.543 175.862,235.902 175.862 C 236.322 175.862,236.552 175.618,236.552 175.172 C 236.552 174.598,236.782 174.483,237.931 174.483 C 239.080 174.483,239.310 174.368,239.310 173.793 C 239.310 173.231,239.540 173.103,240.550 173.103 C 241.499 173.103,241.831 172.942,241.969 172.414 C 242.106 171.891,242.439 171.724,243.348 171.724 C 244.257 171.724,244.591 171.557,244.728 171.034 C 244.827 170.653,245.198 170.345,245.557 170.345 C 245.977 170.345,246.207 170.101,246.207 169.655 C 246.207 169.080,246.437 168.966,247.586 168.966 C 248.736 168.966,248.966 168.851,248.966 168.276 C 248.966 167.701,249.195 167.586,250.345 167.586 C 251.494 167.586,251.724 167.471,251.724 166.897 C 251.724 166.335,251.954 166.207,252.963 166.207 C 253.912 166.207,254.245 166.045,254.383 165.517 C 254.520 164.994,254.853 164.828,255.762 164.828 C 256.671 164.828,257.005 164.661,257.141 164.138 C 257.241 163.756,257.612 163.448,257.971 163.448 C 258.391 163.448,258.621 163.204,258.621 162.759 C 258.621 162.184,258.851 162.069,260.000 162.069 C 261.149 162.069,261.379 161.954,261.379 161.379 C 261.379 160.818,261.609 160.690,262.618 160.690 C 263.568 160.690,263.900 160.528,264.038 160.000 C 264.175 159.477,264.508 159.310,265.417 159.310 C 266.326 159.310,266.660 159.144,266.797 158.621 C 266.896 158.239,267.267 157.931,267.626 157.931 C 268.046 157.931,268.276 157.687,268.276 157.241 C 268.276 156.667,268.506 156.552,269.655 156.552 C 270.805 156.552,271.034 156.437,271.034 155.862 C 271.034 155.300,271.264 155.172,272.274 155.172 C 273.223 155.172,273.555 155.011,273.693 154.483 C 273.830 153.960,274.164 153.793,275.073 153.793 C 275.981 153.793,276.315 153.626,276.452 153.103 C 276.552 152.722,276.922 152.414,277.282 152.414 C 277.701 152.414,277.931 152.170,277.931 151.724 C 277.931 151.149,278.161 151.034,279.310 151.034 C 280.460 151.034,280.690 150.920,280.690 150.345 C 280.690 149.716,280.920 149.655,283.308 149.655 C 285.637 149.655,285.947 149.579,286.107 148.966 C 286.383 147.909,292.927 147.909,293.203 148.966 C 293.356 149.549,293.674 149.655,295.272 149.655 C 296.871 149.655,297.189 149.761,297.341 150.345 C 297.495 150.931,297.812 151.034,299.450 151.034 C 301.149 151.034,301.379 151.117,301.379 151.724 C 301.379 152.170,301.609 152.414,302.029 152.414 C 302.388 152.414,302.759 152.722,302.859 153.103 C 302.995 153.626,303.329 153.793,304.238 153.793 C 305.147 153.793,305.480 153.960,305.617 154.483 C 305.755 155.011,306.088 155.172,307.037 155.172 C 308.046 155.172,308.276 155.300,308.276 155.862 C 308.276 156.437,308.506 156.552,309.655 156.552 C 310.805 156.552,311.034 156.667,311.034 157.241 C 311.034 157.687,311.264 157.931,311.684 157.931 C 312.043 157.931,312.414 158.239,312.514 158.621 C 312.650 159.144,312.984 159.310,313.893 159.310 C 314.802 159.310,315.136 159.477,315.272 160.000 C 315.410 160.528,315.743 160.690,316.692 160.690 C 317.701 160.690,317.931 160.818,317.931 161.379 C 317.931 161.954,318.161 162.069,319.310 162.069 C 320.460 162.069,320.690 162.184,320.690 162.759 C 320.690 163.333,320.920 163.448,322.069 163.448 C 323.218 163.448,323.448 163.563,323.448 164.138 C 323.448 164.583,323.678 164.828,324.098 164.828 C 324.457 164.828,324.828 165.136,324.927 165.517 C 325.064 166.040,325.398 166.207,326.307 166.207 C 327.216 166.207,327.549 166.374,327.686 166.897 C 327.824 167.425,328.156 167.586,329.106 167.586 C 330.115 167.586,330.345 167.714,330.345 168.276 C 330.345 168.851,330.575 168.966,331.724 168.966 C 332.874 168.966,333.103 169.080,333.103 169.655 C 333.103 170.101,333.333 170.345,333.753 170.345 C 334.112 170.345,334.483 170.653,334.583 171.034 C 334.719 171.557,335.053 171.724,335.962 171.724 C 336.871 171.724,337.205 171.891,337.341 172.414 C 337.479 172.942,337.812 173.103,338.761 173.103 C 339.770 173.103,340.000 173.231,340.000 173.793 C 340.000 174.368,340.230 174.483,341.379 174.483 C 342.529 174.483,342.759 174.598,342.759 175.172 C 342.759 175.747,342.989 175.862,344.138 175.862 C 345.287 175.862,345.517 175.977,345.517 176.552 C 345.517 176.997,345.747 177.241,346.167 177.241 C 346.526 177.241,346.897 177.549,346.996 177.931 C 347.135 178.459,347.467 178.621,348.416 178.621 C 349.425 178.621,349.655 178.749,349.655 179.310 C 349.655 179.770,349.885 180.000,350.345 180.000 C 350.805 180.000,351.034 180.230,351.034 180.690 C 351.034 181.149,351.264 181.379,351.724 181.379 C 352.184 181.379,352.414 181.609,352.414 182.069 C 352.414 182.529,352.644 182.759,353.103 182.759 C 353.665 182.759,353.793 182.989,353.793 183.998 C 353.793 184.947,353.955 185.279,354.483 185.417 C 355.006 185.554,355.172 185.888,355.172 186.797 C 355.172 187.706,355.339 188.039,355.862 188.176 C 356.385 188.313,356.552 188.646,356.552 189.555 C 356.552 190.464,356.719 190.798,357.241 190.935 C 357.925 191.113,357.931 191.405,357.931 222.759 C 357.931 254.112,357.925 254.404,357.241 254.583 C 356.655 254.736,356.552 255.053,356.552 256.692 C 356.552 258.391,356.470 258.621,355.862 258.621 C 355.417 258.621,355.172 258.851,355.172 259.270 C 355.172 259.630,354.864 260.000,354.483 260.100 C 353.955 260.238,353.793 260.570,353.793 261.519 C 353.793 262.529,353.665 262.759,353.103 262.759 C 352.644 262.759,352.414 262.989,352.414 263.448 C 352.414 263.908,352.184 264.138,351.724 264.138 C 351.264 264.138,351.034 264.368,351.034 264.828 C 351.034 265.389,350.805 265.517,349.795 265.517 C 348.846 265.517,348.514 265.679,348.376 266.207 C 348.276 266.589,347.905 266.897,347.546 266.897 C 347.126 266.897,346.897 267.141,346.897 267.586 C 346.897 268.148,346.667 268.276,345.657 268.276 C 344.708 268.276,344.376 268.437,344.238 268.966 C 344.101 269.488,343.767 269.655,342.859 269.655 C 341.950 269.655,341.616 269.822,341.479 270.345 C 341.379 270.727,341.009 271.034,340.649 271.034 C 340.230 271.034,340.000 271.279,340.000 271.724 C 340.000 272.299,339.770 272.414,338.621 272.414 C 337.471 272.414,337.241 272.529,337.241 273.103 C 337.241 273.665,337.011 273.793,336.002 273.793 C 335.053 273.793,334.721 273.955,334.583 274.483 C 334.483 274.864,334.112 275.172,333.753 275.172 C 333.333 275.172,333.103 275.417,333.103 275.862 C 333.103 276.437,332.874 276.552,331.724 276.552 C 330.575 276.552,330.345 276.667,330.345 277.241 C 330.345 277.803,330.115 277.931,329.106 277.931 C 328.156 277.931,327.824 278.092,327.686 278.621 C 327.549 279.144,327.216 279.310,326.307 279.310 C 325.398 279.310,325.064 279.477,324.927 280.000 C 324.828 280.382,324.457 280.690,324.098 280.690 C 323.678 280.690,323.448 280.934,323.448 281.379 C 323.448 281.954,323.218 282.069,322.069 282.069 C 320.920 282.069,320.690 282.184,320.690 282.759 C 320.690 283.320,320.460 283.448,319.450 283.448 C 318.501 283.448,318.169 283.610,318.031 284.138 C 317.894 284.661,317.561 284.828,316.652 284.828 C 315.743 284.828,315.409 284.994,315.272 285.517 C 315.173 285.899,314.802 286.207,314.443 286.207 C 314.023 286.207,313.793 286.451,313.793 286.897 C 313.793 287.471,313.563 287.586,312.414 287.586 C 311.264 287.586,311.034 287.701,311.034 288.276 C 311.034 288.838,310.805 288.966,309.795 288.966 C 308.846 288.966,308.514 289.127,308.376 289.655 C 308.276 290.037,307.905 290.345,307.546 290.345 C 307.126 290.345,306.897 290.589,306.897 291.034 C 306.897 291.609,306.667 291.724,305.517 291.724 C 304.368 291.724,304.138 291.839,304.138 292.414 C 304.138 292.976,303.908 293.103,302.899 293.103 C 301.950 293.103,301.617 293.265,301.479 293.793 C 301.342 294.316,301.009 294.483,300.100 294.483 C 299.191 294.483,298.857 294.650,298.721 295.172 C 298.579 295.713,298.250 295.862,297.201 295.862 C 296.092 295.862,295.862 295.980,295.862 296.552 C 295.862 297.212,295.632 297.241,290.385 297.241 C 285.198 297.241,284.898 297.205,284.728 296.552 C 284.575 295.968,284.257 295.862,282.659 295.862 C 281.060 295.862,280.742 295.756,280.590 295.172 C 280.453 294.650,280.119 294.483,279.210 294.483 C 278.301 294.483,277.968 294.316,277.831 293.793 C 277.693 293.265,277.361 293.103,276.412 293.103 C 275.402 293.103,275.172 292.976,275.172 292.414 C 275.172 291.839,274.943 291.724,273.793 291.724 C 272.644 291.724,272.414 291.609,272.414 291.034 C 272.414 290.460,272.184 290.345,271.034 290.345 C 269.885 290.345,269.655 290.230,269.655 289.655 C 269.655 289.210,269.425 288.966,269.006 288.966 C 268.646 288.966,268.276 288.658,268.176 288.276 C 268.038 287.748,267.706 287.586,266.756 287.586 C 265.747 287.586,265.517 287.458,265.517 286.897 C 265.517 286.322,265.287 286.207,264.138 286.207 C 262.989 286.207,262.759 286.092,262.759 285.517 C 262.759 284.943,262.529 284.828,261.379 284.828 C 260.230 284.828,260.000 284.713,260.000 284.138 C 260.000 283.692,259.770 283.448,259.351 283.448 C 258.991 283.448,258.621 283.140,258.521 282.759 C 258.384 282.236,258.050 282.069,257.141 282.069 C 256.233 282.069,255.899 281.902,255.762 281.379 C 255.624 280.851,255.292 280.690,254.343 280.690 C 253.333 280.690,253.103 280.562,253.103 280.000 C 253.103 279.425,252.874 279.310,251.724 279.310 C 250.575 279.310,250.345 279.195,250.345 278.621 C 250.345 278.175,250.115 277.931,249.695 277.931 C 249.336 277.931,248.965 277.623,248.866 277.241 C 248.729 276.719,248.395 276.552,247.486 276.552 C 246.577 276.552,246.244 276.385,246.107 275.862 C 245.969 275.334,245.637 275.172,244.687 275.172 C 243.678 275.172,243.448 275.044,243.448 274.483 C 243.448 273.908,243.218 273.793,242.069 273.793 C 240.920 273.793,240.690 273.678,240.690 273.103 C 240.690 272.529,240.460 272.414,239.310 272.414 C 238.161 272.414,237.931 272.299,237.931 271.724 C 237.931 271.279,237.701 271.034,237.282 271.034 C 236.922 271.034,236.552 270.727,236.452 270.345 C 236.315 269.822,235.981 269.655,235.073 269.655 C 234.164 269.655,233.830 269.488,233.693 268.966 C 233.555 268.437,233.223 268.276,232.274 268.276 C 231.264 268.276,231.034 268.148,231.034 267.586 C 231.034 267.126,230.805 266.897,230.345 266.897 C 229.885 266.897,229.655 266.667,229.655 266.207 C 229.655 265.747,229.425 265.517,228.966 265.517 C 228.506 265.517,228.276 265.287,228.276 264.828 C 228.276 264.368,228.046 264.138,227.586 264.138 C 227.126 264.138,226.897 263.908,226.897 263.448 C 226.897 262.989,226.667 262.759,226.207 262.759 C 225.747 262.759,225.517 262.529,225.517 262.069 C 225.517 261.609,225.287 261.379,224.828 261.379 C 224.253 261.379,224.138 261.149,224.138 260.000 C 224.138 258.851,224.023 258.621,223.448 258.621 C 222.841 258.621,222.759 258.391,222.759 256.692 C 222.759 255.053,222.655 254.736,222.069 254.583 C 221.389 254.405,221.379 254.112,221.379 234.443 L 221.379 214.483 219.310 214.483 C 217.471 214.483,217.241 214.559,217.241 215.172 C 217.241 215.747,217.011 215.862,215.862 215.862 C 214.713 215.862,214.483 215.977,214.483 216.552 C 214.483 217.113,214.253 217.241,213.244 217.241 C 212.294 217.241,211.962 217.403,211.824 217.931 C 211.687 218.454,211.354 218.621,210.445 218.621 C 209.536 218.621,209.202 218.788,209.065 219.310 C 208.966 219.692,208.595 220.000,208.236 220.000 C 207.816 220.000,207.586 220.244,207.586 220.690 C 207.586 221.264,207.356 221.379,206.207 221.379 C 205.057 221.379,204.828 221.494,204.828 222.069 C 204.828 222.631,204.598 222.759,203.588 222.759 C 202.639 222.759,202.307 222.920,202.169 223.448 C 202.032 223.971,201.699 224.138,200.790 224.138 C 199.881 224.138,199.547 224.305,199.410 224.828 C 199.310 225.209,198.940 225.517,198.580 225.517 C 198.161 225.517,197.931 225.761,197.931 226.207 C 197.931 226.782,197.701 226.897,196.552 226.897 C 195.402 226.897,195.172 227.011,195.172 227.586 C 195.172 228.148,194.943 228.276,193.933 228.276 C 192.984 228.276,192.652 228.437,192.514 228.966 C 192.377 229.488,192.043 229.655,191.134 229.655 C 190.225 229.655,189.892 229.822,189.755 230.345 C 189.655 230.727,189.285 231.034,188.925 231.034 C 188.506 231.034,188.276 231.279,188.276 231.724 C 188.276 232.299,188.046 232.414,186.897 232.414 C 185.747 232.414,185.517 232.529,185.517 233.103 C 185.517 233.665,185.287 233.793,184.278 233.793 C 183.329 233.793,182.997 233.955,182.859 234.483 C 182.722 235.006,182.388 235.172,181.479 235.172 C 180.570 235.172,180.237 235.339,180.100 235.862 C 180.000 236.244,179.630 236.552,179.270 236.552 C 178.218 236.552,178.258 277.556,179.310 277.831 C 179.901 277.986,180.000 278.301,180.000 280.040 C 180.000 281.839,180.078 282.069,180.690 282.069 C 181.264 282.069,181.379 282.299,181.379 283.448 C 181.379 284.598,181.494 284.828,182.069 284.828 C 182.631 284.828,182.759 285.057,182.759 286.067 C 182.759 287.016,182.920 287.348,183.448 287.486 C 183.830 287.586,184.138 287.957,184.138 288.316 C 184.138 288.736,184.382 288.966,184.828 288.966 C 185.287 288.966,185.517 289.195,185.517 289.655 C 185.517 290.115,185.747 290.345,186.207 290.345 C 186.667 290.345,186.897 290.575,186.897 291.034 C 186.897 291.480,187.126 291.724,187.546 291.724 C 187.905 291.724,188.276 292.032,188.376 292.414 C 188.514 292.942,188.846 293.103,189.795 293.103 C 190.805 293.103,191.034 293.231,191.034 293.793 C 191.034 294.368,191.264 294.483,192.414 294.483 C 193.563 294.483,193.793 294.598,193.793 295.172 C 193.793 295.618,194.023 295.862,194.443 295.862 C 194.802 295.862,195.173 296.170,195.272 296.552 C 195.409 297.075,195.743 297.241,196.652 297.241 C 197.561 297.241,197.894 297.408,198.031 297.931 C 198.169 298.459,198.501 298.621,199.450 298.621 C 200.460 298.621,200.690 298.749,200.690 299.310 C 200.690 299.885,200.920 300.000,202.069 300.000 C 203.218 300.000,203.448 300.115,203.448 300.690 C 203.448 301.264,203.678 301.379,204.828 301.379 C 205.977 301.379,206.207 301.494,206.207 302.069 C 206.207 302.514,206.437 302.759,206.856 302.759 C 207.216 302.759,207.586 303.067,207.686 303.448 C 207.823 303.971,208.156 304.138,209.065 304.138 C 209.974 304.138,210.308 304.305,210.445 304.828 C 210.583 305.356,210.915 305.517,211.864 305.517 C 212.874 305.517,213.103 305.645,213.103 306.207 C 213.103 306.782,213.333 306.897,214.483 306.897 C 215.632 306.897,215.862 307.011,215.862 307.586 C 215.862 308.032,216.092 308.276,216.512 308.276 C 216.871 308.276,217.241 308.584,217.341 308.966 C 217.478 309.488,217.812 309.655,218.721 309.655 C 219.630 309.655,219.963 309.822,220.100 310.345 C 220.238 310.873,220.570 311.034,221.519 311.034 C 222.529 311.034,222.759 311.162,222.759 311.724 C 222.759 312.299,222.989 312.414,224.138 312.414 C 225.287 312.414,225.517 312.529,225.517 313.103 C 225.517 313.678,225.747 313.793,226.897 313.793 C 228.046 313.793,228.276 313.908,228.276 314.483 C 228.276 314.928,228.506 315.172,228.925 315.172 C 229.285 315.172,229.655 315.480,229.755 315.862 C 229.892 316.385,230.225 316.552,231.134 316.552 C 232.043 316.552,232.377 316.719,232.514 317.241 C 232.652 317.770,232.984 317.931,233.933 317.931 C 234.943 317.931,235.172 318.059,235.172 318.621 C 235.172 319.195,235.402 319.310,236.552 319.310 C 237.701 319.310,237.931 319.425,237.931 320.000 C 237.931 320.446,238.161 320.690,238.580 320.690 C 238.940 320.690,239.310 320.998,239.410 321.379 C 239.547 321.902,239.881 322.069,240.790 322.069 C 241.699 322.069,242.032 322.236,242.169 322.759 C 242.307 323.287,242.639 323.448,243.588 323.448 C 244.598 323.448,244.828 323.576,244.828 324.138 C 244.828 324.713,245.057 324.828,246.207 324.828 C 247.356 324.828,247.586 324.943,247.586 325.517 C 247.586 325.963,247.816 326.207,248.236 326.207 C 248.595 326.207,248.966 326.515,249.065 326.897 C 249.202 327.419,249.536 327.586,250.445 327.586 C 251.354 327.586,251.687 327.753,251.824 328.276 C 251.962 328.804,252.294 328.966,253.244 328.966 C 254.253 328.966,254.483 329.093,254.483 329.655 C 254.483 330.230,254.713 330.345,255.862 330.345 C 257.011 330.345,257.241 330.460,257.241 331.034 C 257.241 331.609,257.471 331.724,258.621 331.724 C 259.770 331.724,260.000 331.839,260.000 332.414 C 260.000 332.859,260.230 333.103,260.649 333.103 C 261.009 333.103,261.379 333.411,261.479 333.793 C 261.616 334.316,261.950 334.483,262.859 334.483 C 263.767 334.483,264.101 334.650,264.238 335.172 C 264.376 335.701,264.708 335.862,265.657 335.862 C 266.667 335.862,266.897 335.990,266.897 336.552 C 266.897 337.126,267.126 337.241,268.276 337.241 C 269.425 337.241,269.655 337.356,269.655 337.931 C 269.655 338.377,269.885 338.621,270.305 338.621 C 270.664 338.621,271.035 338.929,271.134 339.310 C 271.271 339.833,271.605 340.000,272.514 340.000 C 273.423 340.000,273.756 340.167,273.893 340.690 C 274.031 341.218,274.363 341.379,275.313 341.379 C 276.322 341.379,276.552 341.507,276.552 342.069 C 276.552 342.644,276.782 342.759,277.931 342.759 C 279.080 342.759,279.310 342.874,279.310 343.448 C 279.310 344.061,279.540 344.138,281.379 344.138 C 282.529 344.138,283.448 344.291,283.448 344.483 C 283.448 344.700,285.747 344.828,289.655 344.828 C 293.563 344.828,295.862 344.700,295.862 344.483 C 295.862 344.283,296.965 344.138,298.481 344.138 C 300.809 344.138,301.119 344.062,301.279 343.448 C 301.421 342.908,301.750 342.759,302.799 342.759 C 303.908 342.759,304.138 342.640,304.138 342.069 C 304.138 341.507,304.368 341.379,305.377 341.379 C 306.326 341.379,306.658 341.218,306.797 340.690 C 306.933 340.167,307.267 340.000,308.176 340.000 C 309.085 340.000,309.419 339.833,309.555 339.310 C 309.655 338.929,310.026 338.621,310.385 338.621 C 310.805 338.621,311.034 338.377,311.034 337.931 C 311.034 337.356,311.264 337.241,312.414 337.241 C 313.563 337.241,313.793 337.126,313.793 336.552 C 313.793 335.990,314.023 335.862,315.032 335.862 C 315.981 335.862,316.314 335.701,316.452 335.172 C 316.589 334.650,316.922 334.483,317.831 334.483 C 318.740 334.483,319.074 334.316,319.210 333.793 C 319.310 333.411,319.681 333.103,320.040 333.103 C 320.460 333.103,320.690 332.859,320.690 332.414 C 320.690 331.839,320.920 331.724,322.069 331.724 C 323.218 331.724,323.448 331.609,323.448 331.034 C 323.448 330.460,323.678 330.345,324.828 330.345 C 325.977 330.345,326.207 330.230,326.207 329.655 C 326.207 329.093,326.437 328.966,327.446 328.966 C 328.395 328.966,328.727 328.804,328.866 328.276 C 329.002 327.753,329.336 327.586,330.245 327.586 C 331.154 327.586,331.487 327.419,331.624 326.897 C 331.724 326.515,332.095 326.207,332.454 326.207 C 332.874 326.207,333.103 325.963,333.103 325.517 C 333.103 324.943,333.333 324.828,334.483 324.828 C 335.632 324.828,335.862 324.713,335.862 324.138 C 335.862 323.576,336.092 323.448,337.101 323.448 C 338.050 323.448,338.383 323.287,338.521 322.759 C 338.658 322.236,338.991 322.069,339.900 322.069 C 340.809 322.069,341.143 321.902,341.279 321.379 C 341.379 320.998,341.750 320.690,342.109 320.690 C 342.529 320.690,342.759 320.446,342.759 320.000 C 342.759 319.425,342.989 319.310,344.138 319.310 C 345.287 319.310,345.517 319.195,345.517 318.621 C 345.517 318.046,345.747 317.931,346.897 317.931 C 348.046 317.931,348.276 317.816,348.276 317.241 C 348.276 316.680,348.506 316.552,349.515 316.552 C 350.464 316.552,350.796 316.390,350.935 315.862 C 351.071 315.339,351.405 315.172,352.314 315.172 C 353.223 315.172,353.556 315.006,353.693 314.483 C 353.793 314.101,354.164 313.793,354.523 313.793 C 354.943 313.793,355.172 313.549,355.172 313.103 C 355.172 312.529,355.402 312.414,356.552 312.414 C 357.701 312.414,357.931 312.299,357.931 311.724 C 357.931 311.162,358.161 311.034,359.170 311.034 C 360.119 311.034,360.452 310.873,360.590 310.345 C 360.726 309.822,361.060 309.655,361.969 309.655 C 362.878 309.655,363.212 309.488,363.348 308.966 C 363.448 308.584,363.819 308.276,364.178 308.276 C 364.598 308.276,364.828 308.032,364.828 307.586 C 364.828 307.011,365.057 306.897,366.207 306.897 C 367.356 306.897,367.586 306.782,367.586 306.207 C 367.586 305.645,367.816 305.517,368.825 305.517 C 369.775 305.517,370.107 305.356,370.245 304.828 C 370.382 304.305,370.715 304.138,371.624 304.138 C 372.533 304.138,372.867 303.971,373.004 303.448 C 373.103 303.067,373.474 302.759,373.833 302.759 C 374.253 302.759,374.483 302.514,374.483 302.069 C 374.483 301.494,374.713 301.379,375.862 301.379 C 377.011 301.379,377.241 301.264,377.241 300.690 C 377.241 300.115,377.471 300.000,378.621 300.000 C 379.770 300.000,380.000 299.885,380.000 299.310 C 380.000 298.749,380.230 298.621,381.239 298.621 C 382.188 298.621,382.521 298.459,382.659 297.931 C 382.795 297.408,383.129 297.241,384.038 297.241 C 384.947 297.241,385.281 297.075,385.417 296.552 C 385.517 296.170,385.888 295.862,386.247 295.862 C 386.667 295.862,386.897 295.618,386.897 295.172 C 386.897 294.598,387.126 294.483,388.276 294.483 C 389.425 294.483,389.655 294.368,389.655 293.793 C 389.655 293.231,389.885 293.103,390.894 293.103 C 391.824 293.103,392.177 292.939,392.306 292.446 C 392.400 292.084,392.774 291.710,393.135 291.616 C 393.497 291.521,393.793 291.197,393.793 290.894 C 393.793 290.575,394.082 290.345,394.483 290.345 C 394.928 290.345,395.172 290.115,395.172 289.695 C 395.172 289.336,395.480 288.965,395.862 288.866 C 396.390 288.727,396.552 288.395,396.552 287.446 C 396.552 286.437,396.680 286.207,397.241 286.207 C 397.687 286.207,397.931 285.977,397.931 285.557 C 397.931 285.198,398.239 284.827,398.621 284.728 C 399.149 284.590,399.310 284.257,399.310 283.308 C 399.310 282.627,399.466 282.069,399.655 282.069 C 399.884 282.069,400.000 262.299,400.000 223.448 C 400.000 184.598,399.884 164.828,399.655 164.828 C 399.466 164.828,399.310 164.207,399.310 163.448 C 399.310 162.299,399.195 162.069,398.621 162.069 C 398.046 162.069,397.931 161.839,397.931 160.690 C 397.931 159.540,397.816 159.310,397.241 159.310 C 396.782 159.310,396.552 159.080,396.552 158.621 C 396.552 158.161,396.322 157.931,395.862 157.931 C 395.402 157.931,395.172 157.701,395.172 157.241 C 395.172 156.782,394.943 156.552,394.483 156.552 C 394.023 156.552,393.793 156.322,393.793 155.862 C 393.793 155.402,393.563 155.172,393.103 155.172 C 392.644 155.172,392.414 154.943,392.414 154.483 C 392.414 153.908,392.184 153.793,391.034 153.793 C 389.885 153.793,389.655 153.678,389.655 153.103 C 389.655 152.658,389.425 152.414,389.006 152.414 C 388.646 152.414,388.276 152.106,388.176 151.724 C 388.039 151.201,387.706 151.034,386.797 151.034 C 385.888 151.034,385.554 150.868,385.417 150.345 C 385.279 149.817,384.947 149.655,383.998 149.655 C 382.989 149.655,382.759 149.527,382.759 148.966 C 382.759 148.391,382.529 148.276,381.379 148.276 C 380.230 148.276,380.000 148.161,380.000 147.586 C 380.000 147.141,379.770 146.897,379.351 146.897 C 378.991 146.897,378.621 146.589,378.521 146.207 C 378.384 145.684,378.050 145.517,377.141 145.517 C 376.233 145.517,375.899 145.350,375.762 144.828 C 375.624 144.299,375.292 144.138,374.343 144.138 C 373.333 144.138,373.103 144.010,373.103 143.448 C 373.103 142.874,372.874 142.759,371.724 142.759 C 370.575 142.759,370.345 142.644,370.345 142.069 C 370.345 141.623,370.115 141.379,369.695 141.379 C 369.336 141.379,368.965 141.071,368.866 140.690 C 368.729 140.167,368.395 140.000,367.486 140.000 C 366.577 140.000,366.244 139.833,366.107 139.310 C 365.969 138.782,365.637 138.621,364.687 138.621 C 363.678 138.621,363.448 138.493,363.448 137.931 C 363.448 137.356,363.218 137.241,362.069 137.241 C 360.920 137.241,360.690 137.126,360.690 136.552 C 360.690 135.977,360.460 135.862,359.310 135.862 C 358.161 135.862,357.931 135.747,357.931 135.172 C 357.931 134.727,357.701 134.483,357.282 134.483 C 356.922 134.483,356.552 134.175,356.452 133.793 C 356.314 133.265,355.981 133.103,355.032 133.103 C 354.023 133.103,353.793 132.976,353.793 132.414 C 353.793 131.839,353.563 131.724,352.414 131.724 C 351.264 131.724,351.034 131.609,351.034 131.034 C 351.034 130.460,350.805 130.345,349.655 130.345 C 348.506 130.345,348.276 130.230,348.276 129.655 C 348.276 129.210,348.046 128.966,347.626 128.966 C 347.267 128.966,346.896 128.658,346.797 128.276 C 346.660 127.753,346.326 127.586,345.417 127.586 C 344.508 127.586,344.175 127.419,344.038 126.897 C 343.900 126.368,343.568 126.207,342.618 126.207 C 341.609 126.207,341.379 126.079,341.379 125.517 C 341.379 124.943,341.149 124.828,340.000 124.828 C 338.851 124.828,338.621 124.713,338.621 124.138 C 338.621 123.692,338.391 123.448,337.971 123.448 C 337.612 123.448,337.241 123.140,337.141 122.759 C 337.005 122.236,336.671 122.069,335.762 122.069 C 334.853 122.069,334.520 121.902,334.383 121.379 C 334.245 120.851,333.912 120.690,332.963 120.690 C 331.954 120.690,331.724 120.562,331.724 120.000 C 331.724 119.425,331.494 119.310,330.345 119.310 C 329.195 119.310,328.966 119.195,328.966 118.621 C 328.966 118.175,328.736 117.931,328.316 117.931 C 327.957 117.931,327.586 117.623,327.486 117.241 C 327.350 116.719,327.016 116.552,326.107 116.552 C 325.198 116.552,324.864 116.385,324.728 115.862 C 324.590 115.334,324.257 115.172,323.308 115.172 C 322.299 115.172,322.069 115.044,322.069 114.483 C 322.069 113.908,321.839 113.793,320.690 113.793 C 319.540 113.793,319.310 113.678,319.310 113.103 C 319.310 112.658,319.080 112.414,318.661 112.414 C 318.301 112.414,317.931 112.106,317.831 111.724 C 317.694 111.201,317.361 111.034,316.452 111.034 C 315.543 111.034,315.209 110.868,315.073 110.345 C 314.934 109.817,314.602 109.655,313.653 109.655 C 312.644 109.655,312.414 109.527,312.414 108.966 C 312.414 108.391,312.184 108.276,311.034 108.276 C 309.885 108.276,309.655 108.161,309.655 107.586 C 309.655 107.011,309.425 106.897,308.276 106.897 C 307.126 106.897,306.897 106.782,306.897 106.207 C 306.897 105.761,306.667 105.517,306.247 105.517 C 305.888 105.517,305.517 105.209,305.417 104.828 C 305.281 104.305,304.947 104.138,304.038 104.138 C 303.129 104.138,302.795 103.971,302.659 103.448 C 302.522 102.925,302.188 102.759,301.279 102.759 C 300.370 102.759,300.037 102.592,299.900 102.069 C 299.736 101.441,299.430 101.379,296.452 101.379 C 293.474 101.379,293.168 101.318,293.004 100.690 C 292.843 100.076,292.533 100.000,290.205 100.000 C 287.816 100.000,287.586 100.061,287.586 100.690 C 287.586 101.333,287.356 101.379,284.138 101.379 C 280.920 101.379,280.690 101.425,280.690 102.069 C 280.690 102.676,280.460 102.759,278.761 102.759 C 277.122 102.759,276.805 102.862,276.652 103.448 C 276.515 103.971,276.181 104.138,275.272 104.138 C 274.363 104.138,274.030 104.305,273.893 104.828 C 273.793 105.209,273.423 105.517,273.063 105.517 C 272.644 105.517,272.414 105.761,272.414 106.207 C 272.414 106.782,272.184 106.897,271.034 106.897 C 269.885 106.897,269.655 107.011,269.655 107.586 C 269.655 108.148,269.425 108.276,268.416 108.276 C 267.467 108.276,267.135 108.437,266.996 108.966 C 266.860 109.488,266.526 109.655,265.617 109.655 C 264.708 109.655,264.375 109.822,264.238 110.345 C 264.138 110.727,263.767 111.034,263.408 111.034 C 262.989 111.034,262.759 111.279,262.759 111.724 C 262.759 112.299,262.529 112.414,261.379 112.414 C 260.230 112.414,260.000 112.529,260.000 113.103 C 260.000 113.665,259.770 113.793,258.761 113.793 C 257.812 113.793,257.479 113.955,257.341 114.483 C 257.205 115.006,256.871 115.172,255.962 115.172 C 255.053 115.172,254.719 115.339,254.583 115.862 C 254.483 116.244,254.112 116.552,253.753 116.552 C 253.333 116.552,253.103 116.796,253.103 117.241 C 253.103 117.816,252.874 117.931,251.724 117.931 C 250.575 117.931,250.345 118.046,250.345 118.621 C 250.345 119.182,250.115 119.310,249.106 119.310 C 248.156 119.310,247.824 119.472,247.686 120.000 C 247.586 120.382,247.216 120.690,246.856 120.690 C 246.437 120.690,246.207 120.934,246.207 121.379 C 246.207 121.954,245.977 122.069,244.828 122.069 C 243.678 122.069,243.448 122.184,243.448 122.759 C 243.448 123.320,243.218 123.448,242.209 123.448 C 241.260 123.448,240.928 123.610,240.790 124.138 C 240.653 124.661,240.319 124.828,239.410 124.828 C 238.501 124.828,238.168 124.994,238.031 125.517 C 237.931 125.899,237.561 126.207,237.201 126.207 C 236.782 126.207,236.552 126.451,236.552 126.897 C 236.552 127.471,236.322 127.586,235.172 127.586 C 234.023 127.586,233.793 127.701,233.793 128.276 C 233.793 128.838,233.563 128.966,232.554 128.966 C 231.605 128.966,231.273 129.127,231.134 129.655 C 230.998 130.178,230.664 130.345,229.755 130.345 C 228.846 130.345,228.513 130.512,228.376 131.034 C 228.276 131.416,227.905 131.724,227.546 131.724 C 227.126 131.724,226.897 131.968,226.897 132.414 C 226.897 132.989,226.667 133.103,225.517 133.103 C 224.368 133.103,224.138 133.218,224.138 133.793 C 224.138 134.355,223.908 134.483,222.899 134.483 C 221.950 134.483,221.617 134.644,221.479 135.172 C 221.379 135.554,221.009 135.862,220.649 135.862 C 220.230 135.862,220.000 136.106,220.000 136.552 C 220.000 137.126,219.770 137.241,218.621 137.241 C 217.471 137.241,217.241 137.356,217.241 137.931 C 217.241 138.506,217.011 138.621,215.862 138.621 C 214.713 138.621,214.483 138.736,214.483 139.310 C 214.483 139.872,214.253 140.000,213.244 140.000 C 212.294 140.000,211.962 140.161,211.824 140.690 C 211.687 141.212,211.354 141.379,210.445 141.379 C 209.536 141.379,209.202 141.546,209.065 142.069 C 208.966 142.451,208.595 142.759,208.236 142.759 C 207.816 142.759,207.586 143.003,207.586 143.448 C 207.586 144.023,207.356 144.138,206.207 144.138 C 205.057 144.138,204.828 144.253,204.828 144.828 C 204.828 145.402,204.598 145.517,203.448 145.517 C 202.299 145.517,202.069 145.632,202.069 146.207 C 202.069 146.769,201.839 146.897,200.830 146.897 C 199.881 146.897,199.548 147.058,199.410 147.586 C 199.274 148.109,198.940 148.276,198.031 148.276 C 197.122 148.276,196.788 148.443,196.652 148.966 C 196.552 149.347,196.181 149.655,195.822 149.655 C 195.402 149.655,195.172 149.899,195.172 150.345 C 195.172 150.920,194.943 151.034,193.793 151.034 C 192.644 151.034,192.414 151.149,192.414 151.724 C 192.414 152.286,192.184 152.414,191.175 152.414 C 190.225 152.414,189.893 152.575,189.755 153.103 C 189.618 153.626,189.285 153.793,188.376 153.793 C 187.467 153.793,187.133 153.960,186.996 154.483 C 186.860 155.006,186.526 155.172,185.617 155.172 C 184.708 155.172,184.375 155.339,184.238 155.862 C 184.138 156.244,183.767 156.552,183.408 156.552 C 182.989 156.552,182.759 156.796,182.759 157.241 C 182.759 157.816,182.529 157.931,181.379 157.931 C 180.230 157.931,180.000 158.046,180.000 158.621 C 180.000 159.182,179.770 159.310,178.761 159.310 C 177.812 159.310,177.479 159.472,177.341 160.000 C 177.205 160.523,176.871 160.690,175.962 160.690 C 175.053 160.690,174.719 160.856,174.583 161.379 C 174.483 161.761,174.112 162.069,173.753 162.069 C 173.333 162.069,173.103 162.313,173.103 162.759 C 173.103 163.333,172.874 163.448,171.724 163.448 C 170.575 163.448,170.345 163.563,170.345 164.138 C 170.345 164.700,170.115 164.828,169.106 164.828 C 168.156 164.828,167.824 164.989,167.686 165.517 C 167.549 166.040,167.216 166.207,166.307 166.207 C 165.398 166.207,165.064 166.374,164.927 166.897 C 164.828 167.278,164.457 167.586,164.098 167.586 C 163.678 167.586,163.448 167.830,163.448 168.276 C 163.448 168.851,163.218 168.966,162.069 168.966 C 160.920 168.966,160.690 169.080,160.690 169.655 C 160.690 170.217,160.460 170.345,159.450 170.345 C 158.501 170.345,158.169 170.506,158.031 171.034 C 157.931 171.416,157.561 171.724,157.201 171.724 C 156.782 171.724,156.552 171.968,156.552 172.414 C 156.552 172.989,156.322 173.103,155.172 173.103 C 154.023 173.103,153.793 173.218,153.793 173.793 C 153.793 174.355,153.563 174.483,152.554 174.483 C 151.605 174.483,151.273 174.644,151.134 175.172 C 150.998 175.695,150.664 175.862,149.755 175.862 C 148.846 175.862,148.513 176.029,148.376 176.552 C 148.276 176.933,147.905 177.241,147.546 177.241 C 147.126 177.241,146.897 177.486,146.897 177.931 C 146.897 178.506,146.667 178.621,145.517 178.621 C 144.368 178.621,144.138 178.736,144.138 179.310 C 144.138 179.872,143.908 180.000,142.899 180.000 C 141.950 180.000,141.617 180.161,141.479 180.690 C 141.379 181.071,141.009 181.379,140.649 181.379 C 140.230 181.379,140.000 181.623,140.000 182.069 C 140.000 182.644,139.770 182.759,138.621 182.759 C 137.471 182.759,137.241 182.874,137.241 183.448 C 137.241 184.010,137.011 184.138,136.002 184.138 C 135.053 184.138,134.721 184.299,134.583 184.828 C 134.446 185.350,134.112 185.517,133.203 185.517 C 132.294 185.517,131.961 185.684,131.824 186.207 C 131.724 186.589,131.354 186.897,130.994 186.897 C 130.575 186.897,130.345 187.141,130.345 187.586 C 130.345 188.161,130.115 188.276,128.966 188.276 C 127.816 188.276,127.586 188.391,127.586 188.966 C 127.586 189.527,127.356 189.655,126.347 189.655 C 125.398 189.655,125.066 189.817,124.927 190.345 C 124.791 190.868,124.457 191.034,123.548 191.034 C 122.639 191.034,122.306 191.201,122.169 191.724 C 122.069 192.106,121.699 192.414,121.339 192.414 C 120.920 192.414,120.690 192.658,120.690 193.103 C 120.690 193.711,120.460 193.793,118.761 193.793 C 117.122 193.793,116.805 193.897,116.652 194.483 C 116.479 195.143,116.181 195.172,109.615 195.172 C 102.989 195.172,102.759 195.149,102.759 194.483 C 102.759 193.908,102.529 193.793,101.379 193.793 C 100.230 193.793,100.000 193.678,100.000 193.103 C 100.000 192.529,99.770 192.414,98.621 192.414 C 97.471 192.414,97.241 192.299,97.241 191.724 C 97.241 191.149,97.011 191.034,95.862 191.034 C 94.713 191.034,94.483 190.920,94.483 190.345 C 94.483 189.899,94.253 189.655,93.833 189.655 C 93.474 189.655,93.103 189.347,93.004 188.966 C 92.867 188.443,92.533 188.276,91.624 188.276 C 90.715 188.276,90.382 188.109,90.245 187.586 C 90.107 187.058,89.775 186.897,88.825 186.897 C 87.816 186.897,87.586 186.769,87.586 186.207 C 87.586 185.632,87.356 185.517,86.207 185.517 C 85.057 185.517,84.828 185.402,84.828 184.828 C 84.828 184.382,84.598 184.138,84.178 184.138 C 83.819 184.138,83.448 183.830,83.348 183.448 C 83.212 182.925,82.878 182.759,81.969 182.759 C 81.060 182.759,80.726 182.592,80.590 182.069 C 80.452 181.541,80.119 181.379,79.170 181.379 C 78.161 181.379,77.931 181.251,77.931 180.690 C 77.931 180.115,77.701 180.000,76.552 180.000 C 75.402 180.000,75.172 179.885,75.172 179.310 C 75.172 178.865,74.943 178.621,74.523 178.621 C 74.164 178.621,73.793 178.313,73.693 177.931 C 73.556 177.408,73.223 177.241,72.314 177.241 C 71.405 177.241,71.071 177.075,70.935 176.552 C 70.796 176.023,70.464 175.862,69.515 175.862 C 68.506 175.862,68.276 175.734,68.276 175.172 C 68.276 174.598,68.046 174.483,66.897 174.483 C 65.747 174.483,65.517 174.368,65.517 173.793 C 65.517 173.348,65.287 173.103,64.868 173.103 C 64.508 173.103,64.138 172.795,64.038 172.414 C 63.901 171.891,63.568 171.724,62.659 171.724 C 61.750 171.724,61.416 171.557,61.279 171.034 C 61.141 170.506,60.809 170.345,59.860 170.345 C 58.851 170.345,58.621 170.217,58.621 169.655 C 58.621 169.080,58.391 168.966,57.241 168.966 C 56.092 168.966,55.862 168.851,55.862 168.276 C 55.862 167.830,55.632 167.586,55.213 167.586 C 54.853 167.586,54.483 167.278,54.383 166.897 C 54.245 166.368,53.912 166.207,52.963 166.207 C 51.954 166.207,51.724 166.079,51.724 165.517 C 51.724 165.057,51.494 164.828,51.034 164.828 C 50.633 164.828,50.345 164.598,50.345 164.278 C 50.345 163.976,50.034 163.647,49.655 163.548 C 49.276 163.449,48.966 163.139,48.966 162.859 C 48.966 162.578,48.655 162.268,48.276 162.169 C 47.897 162.070,47.586 161.759,47.586 161.479 C 47.586 161.199,47.276 160.889,46.897 160.790 C 46.517 160.690,46.207 160.380,46.207 160.100 C 46.207 159.820,45.897 159.509,45.517 159.410 C 45.136 159.310,44.828 158.940,44.828 158.580 C 44.828 158.161,44.583 157.931,44.138 157.931 C 43.563 157.931,43.448 157.701,43.448 156.552 C 43.448 155.402,43.333 155.172,42.759 155.172 C 42.151 155.172,42.069 154.943,42.069 153.244 C 42.069 151.605,41.965 151.288,41.379 151.134 C 40.696 150.956,40.690 150.664,40.690 120.690 C 40.690 90.715,40.696 90.424,41.379 90.245 C 41.965 90.092,42.069 89.775,42.069 88.136 C 42.069 86.437,42.151 86.207,42.759 86.207 C 43.333 86.207,43.448 85.977,43.448 84.828 C 43.448 83.678,43.563 83.448,44.138 83.448 C 44.583 83.448,44.828 83.218,44.828 82.799 C 44.828 82.439,45.136 82.069,45.517 81.969 C 45.897 81.870,46.207 81.560,46.207 81.279 C 46.207 80.999,46.517 80.689,46.897 80.590 C 47.276 80.491,47.586 80.180,47.586 79.900 C 47.586 79.620,47.897 79.310,48.276 79.210 C 48.655 79.111,48.966 78.783,48.966 78.481 C 48.966 78.161,49.254 77.931,49.655 77.931 C 50.115 77.931,50.345 77.701,50.345 77.241 C 50.345 76.782,50.575 76.552,51.034 76.552 C 51.494 76.552,51.724 76.322,51.724 75.862 C 51.724 75.287,51.954 75.172,53.103 75.172 C 54.253 75.172,54.483 75.057,54.483 74.483 C 54.483 73.908,54.713 73.793,55.862 73.793 C 57.011 73.793,57.241 73.678,57.241 73.103 C 57.241 72.542,57.471 72.414,58.481 72.414 C 59.430 72.414,59.762 72.252,59.900 71.724 C 60.037 71.201,60.370 71.034,61.279 71.034 C 62.188 71.034,62.522 70.868,62.659 70.345 C 62.759 69.963,63.129 69.655,63.488 69.655 C 63.908 69.655,64.138 69.411,64.138 68.966 C 64.138 68.391,64.368 68.276,65.517 68.276 C 66.667 68.276,66.897 68.161,66.897 67.586 C 66.897 67.024,67.126 66.897,68.136 66.897 C 69.085 66.897,69.417 66.735,69.555 66.207 C 69.692 65.684,70.026 65.517,70.935 65.517 C 71.844 65.517,72.177 65.350,72.314 64.828 C 72.414 64.446,72.784 64.138,73.144 64.138 C 73.563 64.138,73.793 63.894,73.793 63.448 C 73.793 62.874,74.023 62.759,75.172 62.759 C 76.322 62.759,76.552 62.644,76.552 62.069 C 76.552 61.494,76.782 61.379,77.931 61.379 C 79.080 61.379,79.310 61.264,79.310 60.690 C 79.310 60.128,79.540 60.000,80.550 60.000 C 81.499 60.000,81.831 59.839,81.969 59.310 C 82.106 58.788,82.439 58.621,83.348 58.621 C 84.257 58.621,84.591 58.454,84.728 57.931 C 84.827 57.549,85.198 57.241,85.557 57.241 C 85.977 57.241,86.207 56.997,86.207 56.552 C 86.207 55.977,86.437 55.862,87.586 55.862 C 88.736 55.862,88.966 55.747,88.966 55.172 C 88.966 54.611,89.195 54.483,90.205 54.483 C 91.154 54.483,91.486 54.321,91.624 53.793 C 91.761 53.270,92.095 53.103,93.004 53.103 C 93.912 53.103,94.246 52.937,94.383 52.414 C 94.483 52.032,94.853 51.724,95.213 51.724 C 95.632 51.724,95.862 51.480,95.862 51.034 C 95.862 50.460,96.092 50.345,97.241 50.345 C 98.391 50.345,98.621 50.230,98.621 49.655 C 98.621 49.080,98.851 48.966,100.000 48.966 C 101.149 48.966,101.379 48.851,101.379 48.276 C 101.379 47.634,101.609 47.586,104.687 47.586 C 107.706 47.586,108.011 47.526,108.176 46.897 C 108.275 46.517,108.630 46.207,108.966 46.207 C 109.301 46.207,109.656 46.517,109.755 46.897 C 109.920 47.526,110.225 47.586,113.244 47.586 C 116.322 47.586,116.552 47.634,116.552 48.276 C 116.552 48.847,116.782 48.966,117.891 48.966 C 118.940 48.966,119.269 49.115,119.410 49.655 C 119.547 50.178,119.881 50.345,120.790 50.345 C 121.699 50.345,122.032 50.512,122.169 51.034 C 122.307 51.563,122.639 51.724,123.588 51.724 C 124.598 51.724,124.828 51.852,124.828 52.414 C 124.828 52.989,125.057 53.103,126.207 53.103 C 127.356 53.103,127.586 53.218,127.586 53.793 C 127.586 54.239,127.816 54.483,128.236 54.483 C 128.595 54.483,128.966 54.791,129.065 55.172 C 129.202 55.695,129.536 55.862,130.445 55.862 C 131.354 55.862,131.687 56.029,131.824 56.552 C 131.962 57.080,132.294 57.241,133.244 57.241 C 134.253 57.241,134.483 57.369,134.483 57.931 C 134.483 58.506,134.713 58.621,135.862 58.621 C 137.011 58.621,137.241 58.736,137.241 59.310 C 137.241 59.885,137.471 60.000,138.621 60.000 C 139.770 60.000,140.000 60.115,140.000 60.690 C 140.000 61.135,140.230 61.379,140.649 61.379 C 141.009 61.379,141.379 61.687,141.479 62.069 C 141.616 62.592,141.950 62.759,142.859 62.759 C 143.767 62.759,144.101 62.925,144.238 63.448 C 144.376 63.977,144.708 64.138,145.657 64.138 C 146.667 64.138,146.897 64.266,146.897 64.828 C 146.897 65.402,147.126 65.517,148.276 65.517 C 149.425 65.517,149.655 65.632,149.655 66.207 C 149.655 66.652,149.885 66.897,150.305 66.897 C 150.664 66.897,151.035 67.205,151.134 67.586 C 151.271 68.109,151.605 68.276,152.514 68.276 C 153.423 68.276,153.756 68.443,153.893 68.966 C 154.031 69.494,154.363 69.655,155.313 69.655 C 156.322 69.655,156.552 69.783,156.552 70.345 C 156.552 70.920,156.782 71.034,157.931 71.034 C 159.080 71.034,159.310 71.149,159.310 71.724 C 159.310 72.299,159.540 72.414,160.690 72.414 C 161.839 72.414,162.069 72.529,162.069 73.103 C 162.069 73.549,162.299 73.793,162.718 73.793 C 163.078 73.793,163.448 74.101,163.548 74.483 C 163.686 75.011,164.019 75.172,164.968 75.172 C 165.977 75.172,166.207 75.300,166.207 75.862 C 166.207 76.308,166.437 76.552,166.856 76.552 C 167.216 76.552,167.586 76.860,167.686 77.241 C 167.824 77.770,168.156 77.931,169.106 77.931 C 170.115 77.931,170.345 78.059,170.345 78.621 C 170.345 79.080,170.575 79.310,171.034 79.310 C 171.494 79.310,171.724 79.540,171.724 80.000 C 171.724 80.460,171.954 80.690,172.414 80.690 C 172.976 80.690,173.103 80.920,173.103 81.929 C 173.103 82.878,173.265 83.210,173.793 83.348 C 174.175 83.448,174.483 83.819,174.483 84.178 C 174.483 84.598,174.727 84.828,175.172 84.828 C 175.747 84.828,175.862 85.057,175.862 86.207 C 175.862 87.356,175.977 87.586,176.552 87.586 C 177.184 87.586,177.241 87.816,177.241 90.345 C 177.241 92.874,177.299 93.103,177.931 93.103 C 178.612 93.103,178.621 93.333,178.621 111.724 L 178.621 130.345 180.000 130.345 C 181.149 130.345,181.379 130.230,181.379 129.655 C 181.379 129.093,181.609 128.966,182.618 128.966 C 183.568 128.966,183.900 128.804,184.038 128.276 C 184.138 127.894,184.508 127.586,184.868 127.586 C 185.287 127.586,185.517 127.342,185.517 126.897 C 185.517 126.322,185.747 126.207,186.897 126.207 C 188.046 126.207,188.276 126.092,188.276 125.517 C 188.276 124.943,188.506 124.828,189.655 124.828 C 190.805 124.828,191.034 124.713,191.034 124.138 C 191.034 123.576,191.264 123.448,192.274 123.448 C 193.223 123.448,193.555 123.287,193.693 122.759 C 193.793 122.377,194.164 122.069,194.523 122.069 C 194.943 122.069,195.172 121.825,195.172 121.379 C 195.172 120.805,195.402 120.690,196.552 120.690 C 197.701 120.690,197.931 120.575,197.931 120.000 C 197.931 119.438,198.161 119.310,199.170 119.310 C 200.119 119.310,200.452 119.149,200.590 118.621 C 200.726 118.098,201.060 117.931,201.969 117.931 C 202.878 117.931,203.212 117.764,203.348 117.241 C 203.448 116.860,203.819 116.552,204.178 116.552 C 204.598 116.552,204.828 116.308,204.828 115.862 C 204.828 115.287,205.057 115.172,206.207 115.172 C 207.356 115.172,207.586 115.057,207.586 114.483 C 207.586 113.921,207.816 113.793,208.825 113.793 C 209.775 113.793,210.107 113.632,210.245 113.103 C 210.382 112.581,210.715 112.414,211.624 112.414 C 212.533 112.414,212.867 112.247,213.004 111.724 C 213.103 111.342,213.474 111.034,213.833 111.034 C 214.253 111.034,214.483 110.790,214.483 110.345 C 214.483 109.770,214.713 109.655,215.862 109.655 C 216.997 109.655,217.241 109.537,217.241 108.986 C 217.241 108.462,217.521 108.294,218.534 108.210 L 219.828 108.103 219.916 86.810 C 220.005 65.691,220.000 65.517,219.313 65.517 C 218.697 65.517,218.621 65.290,218.621 63.448 C 218.621 61.609,218.544 61.379,217.931 61.379 C 217.356 61.379,217.241 61.149,217.241 60.000 C 217.241 58.851,217.126 58.621,216.552 58.621 C 216.092 58.621,215.862 58.391,215.862 57.931 C 215.862 57.471,215.632 57.241,215.172 57.241 C 214.611 57.241,214.483 57.011,214.483 56.002 C 214.483 55.073,214.318 54.720,213.825 54.591 C 213.463 54.496,213.090 54.123,212.995 53.761 C 212.866 53.268,212.513 53.103,211.584 53.103 C 210.575 53.103,210.345 52.976,210.345 52.414 C 210.345 51.954,210.115 51.724,209.655 51.724 C 209.195 51.724,208.966 51.494,208.966 51.034 C 208.966 50.460,208.736 50.345,207.586 50.345 C 206.437 50.345,206.207 50.230,206.207 49.655 C 206.207 49.210,205.977 48.966,205.557 48.966 C 205.198 48.966,204.827 48.658,204.728 48.276 C 204.591 47.753,204.257 47.586,203.348 47.586 C 202.439 47.586,202.106 47.419,201.969 46.897 C 201.831 46.368,201.499 46.207,200.550 46.207 C 199.540 46.207,199.310 46.079,199.310 45.517 C 199.310 44.943,199.080 44.828,197.931 44.828 C 196.782 44.828,196.552 44.713,196.552 44.138 C 196.552 43.692,196.322 43.448,195.902 43.448 C 195.543 43.448,195.172 43.140,195.073 42.759 C 194.936 42.236,194.602 42.069,193.693 42.069 C 192.784 42.069,192.451 41.902,192.314 41.379 C 192.176 40.851,191.844 40.690,190.894 40.690 C 189.885 40.690,189.655 40.562,189.655 40.000 C 189.655 39.425,189.425 39.310,188.276 39.310 C 187.126 39.310,186.897 39.195,186.897 38.621 C 186.897 38.175,186.667 37.931,186.247 37.931 C 185.888 37.931,185.517 37.623,185.417 37.241 C 185.281 36.719,184.947 36.552,184.038 36.552 C 183.129 36.552,182.795 36.385,182.659 35.862 C 182.521 35.334,182.188 35.172,181.239 35.172 C 180.230 35.172,180.000 35.044,180.000 34.483 C 180.000 33.908,179.770 33.793,178.621 33.793 C 177.471 33.793,177.241 33.678,177.241 33.103 C 177.241 32.658,177.011 32.414,176.592 32.414 C 176.233 32.414,175.862 32.106,175.762 31.724 C 175.625 31.201,175.292 31.034,174.383 31.034 C 173.474 31.034,173.140 30.868,173.004 30.345 C 172.865 29.817,172.533 29.655,171.584 29.655 C 170.575 29.655,170.345 29.527,170.345 28.966 C 170.345 28.391,170.115 28.276,168.966 28.276 C 167.816 28.276,167.586 28.161,167.586 27.586 C 167.586 27.141,167.356 26.897,166.937 26.897 C 166.577 26.897,166.207 26.589,166.107 26.207 C 165.969 25.679,165.637 25.517,164.687 25.517 C 163.678 25.517,163.448 25.389,163.448 24.828 C 163.448 24.253,163.218 24.138,162.069 24.138 C 160.920 24.138,160.690 24.023,160.690 23.448 C 160.690 22.874,160.460 22.759,159.310 22.759 C 158.161 22.759,157.931 22.644,157.931 22.069 C 157.931 21.623,157.701 21.379,157.282 21.379 C 156.922 21.379,156.552 21.071,156.452 20.690 C 156.314 20.161,155.981 20.000,155.032 20.000 C 154.023 20.000,153.793 19.872,153.793 19.310 C 153.793 18.736,153.563 18.621,152.414 18.621 C 151.264 18.621,151.034 18.506,151.034 17.931 C 151.034 17.356,150.805 17.241,149.655 17.241 C 148.506 17.241,148.276 17.126,148.276 16.552 C 148.276 16.106,148.046 15.862,147.626 15.862 C 147.267 15.862,146.896 15.554,146.797 15.172 C 146.658 14.644,146.326 14.483,145.377 14.483 C 144.368 14.483,144.138 14.355,144.138 13.793 C 144.138 13.218,143.908 13.103,142.759 13.103 C 141.609 13.103,141.379 12.989,141.379 12.414 C 141.379 11.968,141.149 11.724,140.730 11.724 C 140.370 11.724,140.000 11.416,139.900 11.034 C 139.763 10.512,139.430 10.345,138.521 10.345 C 137.612 10.345,137.278 10.178,137.141 9.655 C 137.003 9.127,136.671 8.966,135.722 8.966 C 134.713 8.966,134.483 8.838,134.483 8.276 C 134.483 7.701,134.253 7.586,133.103 7.586 C 131.954 7.586,131.724 7.471,131.724 6.897 C 131.724 6.451,131.494 6.207,131.075 6.207 C 130.715 6.207,130.345 5.899,130.245 5.517 C 130.108 4.994,129.775 4.828,128.866 4.828 C 127.957 4.828,127.623 4.661,127.486 4.138 C 127.348 3.610,127.016 3.448,126.067 3.448 C 125.057 3.448,124.828 3.320,124.828 2.759 C 124.828 2.184,124.598 2.069,123.448 2.069 C 122.299 2.069,122.069 1.954,122.069 1.379 C 122.069 0.805,121.839 0.690,120.690 0.690 C 119.931 0.690,119.310 0.534,119.310 0.345 C 119.310 0.124,116.092 0.000,110.345 0.000 C 104.598 0.000,101.379 0.124,101.379 0.345 " stroke="none" fill="#8444e4" fill-rule="evenodd"></path><path id="path1" d="" stroke="none" fill="#844ce4" fill-rule="evenodd"></path><path id="path2" d="" stroke="none" fill="#8844e4" fill-rule="evenodd"></path><path id="path3" d="" stroke="none" fill="#8844e4" fill-rule="evenodd"></path><path id="path4" d="" stroke="none" fill="#8844e4" fill-rule="evenodd"></path></g></svg>