<?xml version="1.0" encoding="UTF-8"?>
<svg xmlns="http://www.w3.org/2000/svg" xmlns:xlink="http://www.w3.org/1999/xlink" width="32pt" height="32pt" viewBox="0 0 32 32" version="1.1">
<g id="surface1">
<path style=" stroke:none;fill-rule:evenodd;fill:rgb(100%,100%,100%);fill-opacity:1;" d="M 32 16 C 32 24.835938 24.835938 32 16 32 C 7.164062 32 0 24.835938 0 16 C 0 7.164062 7.164062 0 16 0 C 24.835938 0 32 7.164062 32 16 Z M 19.339844 9.917969 L 22.667969 8 L 26 9.921875 L 25.984375 9.929688 L 25.984375 21.859375 L 22.671875 23.769531 L 22.667969 23.777344 L 22.660156 23.773438 L 22.652344 23.78125 L 22.652344 23.769531 L 19.335938 21.859375 L 19.335938 17.613281 L 15.996094 19.523438 L 15.992188 19.523438 L 15.992188 19.519531 L 12.664062 17.601562 L 12.664062 21.855469 L 9.332031 23.777344 L 9.332031 23.761719 L 9.332031 23.777344 L 6 21.855469 L 6 9.917969 L 6 9.921875 L 9.332031 8 L 19.324219 13.761719 L 19.335938 13.757812 L 19.335938 9.917969 Z M 19.339844 9.917969 "/>
</g>
</svg>
