<?xml version="1.0" encoding="UTF-8"?>
<svg xmlns="http://www.w3.org/2000/svg" xmlns:xlink="http://www.w3.org/1999/xlink" width="28pt" height="28pt" viewBox="0 0 28 28" version="1.1">
<g id="surface1">
<path style=" stroke:none;fill-rule:evenodd;fill:rgb(100%,100%,100%);fill-opacity:1;" d="M 28 14 C 28 21.730469 21.730469 28 14 28 C 6.269531 28 0 21.730469 0 14 C 0 6.269531 6.269531 0 14 0 C 21.730469 0 28 6.269531 28 14 Z M 16.921875 8.679688 L 19.835938 7 L 22.75 8.679688 L 22.734375 8.6875 L 22.734375 19.128906 L 19.839844 20.796875 L 19.835938 20.804688 L 19.828125 20.800781 L 19.820312 20.808594 L 19.820312 20.796875 L 16.917969 19.128906 L 16.917969 15.410156 L 13.996094 17.082031 L 13.992188 17.082031 L 13.992188 17.078125 L 11.082031 15.402344 L 11.082031 19.125 L 8.164062 20.804688 L 8.164062 20.792969 L 8.164062 20.804688 L 5.25 19.125 L 5.25 8.679688 L 8.164062 7 L 16.910156 12.042969 L 16.917969 12.039062 L 16.917969 8.679688 Z M 16.921875 8.679688 "/>
</g>
</svg>
